<svg width="220" height="16" viewBox="0 0 220 16" fill="none" xmlns="http://www.w3.org/2000/svg">
<g opacity="0.4">
<path d="M0.989851 14L4.47368 6.307H5.56169L9.05651 14H7.90256L4.79239 6.92244H5.23199L2.12182 14H0.989851ZM2.4735 12.0767L2.77023 11.1975H7.10029L7.419 12.0767H2.4735Z" fill="white"/>
<path d="M27.4742 1.92877H30.5282C31.7696 3.54383 32.781 5.40889 33.977 7.28815C35.1333 5.44582 36.2398 3.68445 37.3364 1.94014H40.4557V14.3052H37.5992V7.05661C36.3577 9.03531 35.2057 10.8705 33.9756 12.8308C32.7455 10.8663 31.5935 9.02536 30.3463 7.03246V14.3066H27.4742V1.92877Z" fill="white"/>
<path d="M85.8318 1.90618V14.2869H82.9852C81.0946 11.8877 77.1755 6.91754 77.1755 6.91754V14.2897H74.2906V1.90192H77.2011L82.9852 9.32805C82.9852 9.32805 82.9454 3.14384 82.9454 1.90618H85.8304H85.8318Z" fill="white"/>
<path d="M137.537 1.90618V14.2869H134.69C132.8 11.8877 128.881 6.91754 128.881 6.91754V14.2897H125.996V1.90192H128.906L134.69 9.32805C134.69 9.32805 134.65 3.14384 134.65 1.90618H137.535H137.537Z" fill="white"/>
<path d="M101.037 14.2853V1.9458H110.639V5.0012H103.963V6.60915C103.943 6.58642 103.964 6.62052 103.995 6.64324C104.025 6.66455 104.064 6.68586 104.098 6.68586C106.109 6.68728 108.12 6.68728 110.17 6.68728V9.52534H103.949V11.4501H110.91V14.2881H101.037V14.2853Z" fill="white"/>
<path d="M139.777 1.93463H149.379V4.99287H142.668V6.6406H148.903C148.922 7.5994 148.932 8.55821 148.932 9.51702H142.696V11.4417H149.608V14.3039H139.777V1.93463Z" fill="white"/>
<path d="M42.6539 14.2853V1.9458H52.2561V5.0012H45.58V6.60915C45.5601 6.58642 45.5814 6.62052 45.6127 6.64324C45.6425 6.66455 45.6809 6.68586 45.715 6.68586C47.7263 6.68728 49.7377 6.68728 51.7874 6.68728V9.52534H45.5658V11.4501H52.5275V14.2881H42.6539V14.2853Z" fill="white"/>
<path d="M58.8517 1.62139C59.1808 1.63609 59.5099 1.63232 59.8387 1.61801C60.2978 1.60907 60.7507 1.68021 61.198 1.76188C61.9499 1.899 62.678 2.12633 63.3666 2.46416C63.7207 2.63784 64.0619 2.83576 64.3745 3.0784C64.5193 3.19087 64.5205 3.20617 64.4202 3.34865C64.1428 3.74192 63.8644 4.13459 63.586 4.52706C63.3954 4.79592 63.2034 5.0638 63.0135 5.33306C62.9133 5.47495 62.8928 5.4813 62.745 5.38691C62.1773 5.02405 61.5716 4.74982 60.9279 4.54554C60.3133 4.35039 59.6913 4.27806 59.0524 4.3178C58.7855 4.3345 58.5334 4.40584 58.3106 4.55786C57.8734 4.85633 57.8088 5.5443 58.2548 5.91153C58.5401 6.14662 58.8746 6.28015 59.2215 6.38428C59.7324 6.53769 60.2553 6.64321 60.7745 6.76384C61.3059 6.88744 61.8363 7.02138 62.3468 7.22109C62.9703 7.46512 63.5562 7.76816 64.0357 8.24846C64.4625 8.67591 64.7314 9.18403 64.8532 9.77641C65.0422 10.6959 64.9017 11.5701 64.4701 12.3906C64.1738 12.9537 63.7253 13.3933 63.1865 13.7345C62.6699 14.0616 62.1059 14.2645 61.5056 14.3835C60.8735 14.5089 60.238 14.5651 59.5949 14.555C59.2706 14.5498 58.9495 14.5053 58.6281 14.4706C58.3466 14.4399 58.0668 14.3857 57.7894 14.3269C56.6521 14.0854 55.5866 13.6747 54.6448 12.977C54.5075 12.8752 54.3694 12.7745 54.2337 12.6704C54.0876 12.5583 54.0856 12.5543 54.1999 12.4168C54.4356 12.1332 54.6756 11.8532 54.9129 11.5708C55.201 11.2281 55.488 10.8845 55.7759 10.5415C55.8924 10.403 55.8898 10.4077 56.0373 10.5065C56.6827 10.9391 57.3488 11.3385 58.0958 11.5679C58.799 11.7837 59.5206 11.918 60.2626 11.8642C60.5722 11.8417 60.8786 11.7926 61.155 11.6326C61.6964 11.3195 61.7635 10.6035 61.2908 10.1941C61.1085 10.0363 60.8943 9.93678 60.6743 9.85153C60.3429 9.72316 59.9979 9.63811 59.6523 9.55504C59.0379 9.40719 58.4175 9.28041 57.8162 9.08269C57.19 8.87681 56.5752 8.64014 56.0158 8.28702C55.3932 7.89415 54.9896 7.33118 54.7899 6.62255C54.5795 5.87576 54.5987 5.12858 54.8267 4.39312C55.0602 3.63958 55.5186 3.03527 56.145 2.55954C56.5726 2.23463 57.0487 2.00352 57.5652 1.85588C57.6018 1.86939 57.631 1.86323 57.6491 1.82567C57.6733 1.8213 57.6975 1.81713 57.7218 1.81275C57.7899 1.82428 57.8573 1.83342 57.8957 1.75493C57.9442 1.74837 57.9926 1.74201 58.0411 1.73545C58.0894 1.75354 58.1331 1.75254 58.1655 1.70525C58.2031 1.70127 58.2404 1.6973 58.278 1.69332C58.3674 1.69611 58.4648 1.73804 58.5336 1.64086C58.6395 1.6343 58.7454 1.62775 58.8511 1.62119L58.8517 1.62139Z" fill="white"/>
<path d="M94.9948 14.3066H92.0928V4.97994C92.0928 4.97994 89.3485 4.97994 87.982 4.97994C87.982 4.08372 87.982 1.93164 87.982 1.93164H98.7931V4.97994H94.9948V14.3052V14.3066Z" fill="white"/>
<path d="M13.4296 5.01691H17.4992V14.3053H20.3629V1.93311H13.4296C13.4296 1.93311 13.4296 4.12918 13.4296 5.01549V5.01691Z" fill="white"/>
<path d="M158.571 5.01691H154.502V14.3053H151.638V1.93311H158.571C158.571 1.93311 158.571 4.12918 158.571 5.01549V5.01691Z" fill="white"/>
<path d="M25.1487 14.3054H22.3277V1.88782H25.1487V14.3054Z" fill="white"/>
<path d="M72.1663 14.3053H69.3453V1.8877H72.1663V14.3053Z" fill="white"/>
<path d="M121.103 9.60503C122.07 11.0553 123.035 12.784 124.043 14.2954H120.503C119.771 13.2016 118.296 10.7201 118.296 10.7201H115.772V14.2911H112.925V1.86497C115.42 1.86497 117.924 1.71724 120.4 1.91327C122.239 2.05957 123.738 3.28685 123.755 5.35219C123.759 5.93457 123.768 6.53401 123.64 7.09651C123.415 8.09224 122.695 8.74849 121.843 9.2627C121.621 9.39622 121.371 9.48145 121.103 9.60361V9.60503ZM115.815 4.74991V7.81668H119.623C119.623 7.81668 120.853 7.81668 120.853 6.28401C120.853 4.75133 119.623 4.75134 119.623 4.75134H115.815V4.74991Z" fill="white"/>
<path d="M163.874 14V6.307H166.874C167.548 6.307 168.123 6.41324 168.599 6.62571C169.075 6.83818 169.442 7.1459 169.698 7.54887C169.955 7.95184 170.083 8.43173 170.083 8.98856C170.083 9.54539 169.955 10.0253 169.698 10.4282C169.442 10.8239 169.075 11.1316 168.599 11.3514C168.123 11.5639 167.548 11.6701 166.874 11.6701H164.478L164.973 11.1536V14H163.874ZM164.973 11.2635L164.478 10.714H166.841C167.544 10.714 168.075 10.5638 168.434 10.2634C168.801 9.96301 168.984 9.53806 168.984 8.98856C168.984 8.43906 168.801 8.01411 168.434 7.71372C168.075 7.41333 167.544 7.26313 166.841 7.26313H164.478L164.973 6.71363V11.2635ZM171.697 14V6.307H174.698C175.372 6.307 175.947 6.41324 176.423 6.62571C176.899 6.83818 177.266 7.1459 177.522 7.54887C177.779 7.95184 177.907 8.43173 177.907 8.98856C177.907 9.54539 177.779 10.0253 177.522 10.4282C177.266 10.8239 176.899 11.1279 176.423 11.3404C175.947 11.5529 175.372 11.6591 174.698 11.6591H172.302L172.796 11.1536V14H171.697ZM176.841 14L174.885 11.2085H176.061L178.039 14H176.841ZM172.796 11.2635L172.302 10.725H174.665C175.368 10.725 175.899 10.5748 176.258 10.2744C176.625 9.96667 176.808 9.53806 176.808 8.98856C176.808 8.43906 176.625 8.01411 176.258 7.71372C175.899 7.41333 175.368 7.26313 174.665 7.26313H172.302L172.796 6.71363V11.2635ZM183.155 14.0879C182.569 14.0879 182.023 13.989 181.518 13.7912C181.02 13.5934 180.587 13.3186 180.221 12.9669C179.855 12.6079 179.569 12.1903 179.364 11.7141C179.159 11.2378 179.056 10.7177 179.056 10.1535C179.056 9.58935 179.159 9.06915 179.364 8.59292C179.569 8.11669 179.855 7.70273 180.221 7.35105C180.587 6.99204 181.02 6.71363 181.518 6.51581C182.016 6.31799 182.562 6.21908 183.155 6.21908C183.741 6.21908 184.28 6.31799 184.771 6.51581C185.269 6.7063 185.701 6.98105 186.068 7.34006C186.441 7.69174 186.727 8.1057 186.925 8.58193C187.13 9.05816 187.233 9.58202 187.233 10.1535C187.233 10.725 187.13 11.2488 186.925 11.7251C186.727 12.2013 186.441 12.6189 186.068 12.9779C185.701 13.3296 185.269 13.6044 184.771 13.8022C184.28 13.9927 183.741 14.0879 183.155 14.0879ZM183.155 13.1098C183.58 13.1098 183.972 13.0365 184.331 12.89C184.698 12.7435 185.013 12.5383 185.276 12.2746C185.547 12.0035 185.756 11.6884 185.903 11.3294C186.057 10.9704 186.134 10.5784 186.134 10.1535C186.134 9.72855 186.057 9.33658 185.903 8.97757C185.756 8.61856 185.547 8.30718 185.276 8.04342C185.013 7.77233 184.698 7.56352 184.331 7.41699C183.972 7.27046 183.58 7.19719 183.155 7.19719C182.723 7.19719 182.324 7.27046 181.957 7.41699C181.598 7.56352 181.283 7.77233 181.012 8.04342C180.741 8.30718 180.529 8.61856 180.375 8.97757C180.228 9.33658 180.155 9.72855 180.155 10.1535C180.155 10.5784 180.228 10.9704 180.375 11.3294C180.529 11.6884 180.741 12.0035 181.012 12.2746C181.283 12.5383 181.598 12.7435 181.957 12.89C182.324 13.0365 182.723 13.1098 183.155 13.1098ZM188.912 14V6.307H192.154C192.975 6.307 193.697 6.46819 194.319 6.79056C194.949 7.11293 195.437 7.56352 195.781 8.14233C196.133 8.72114 196.309 9.39153 196.309 10.1535C196.309 10.9155 196.133 11.5859 195.781 12.1647C195.437 12.7435 194.949 13.1941 194.319 13.5164C193.697 13.8388 192.975 14 192.154 14H188.912ZM190.011 13.0439H192.088C192.726 13.0439 193.275 12.923 193.737 12.6812C194.206 12.4394 194.568 12.1024 194.825 11.6701C195.081 11.2305 195.21 10.725 195.21 10.1535C195.21 9.57469 195.081 9.06915 194.825 8.63688C194.568 8.20461 194.206 7.86758 193.737 7.6258C193.275 7.38402 192.726 7.26313 192.088 7.26313H190.011V13.0439ZM201.179 14.0879C200.168 14.0879 199.373 13.7985 198.794 13.2197C198.215 12.6409 197.926 11.7947 197.926 10.681V6.307H199.025V10.6371C199.025 11.4943 199.212 12.1207 199.585 12.5163C199.966 12.912 200.501 13.1098 201.19 13.1098C201.886 13.1098 202.421 12.912 202.795 12.5163C203.176 12.1207 203.366 11.4943 203.366 10.6371V6.307H204.432V10.681C204.432 11.7947 204.143 12.6409 203.564 13.2197C202.992 13.7985 202.197 14.0879 201.179 14.0879ZM210.125 14.0879C209.539 14.0879 208.997 13.9927 208.499 13.8022C208.008 13.6044 207.579 13.3296 207.213 12.9779C206.854 12.6189 206.572 12.2013 206.366 11.7251C206.161 11.2488 206.059 10.725 206.059 10.1535C206.059 9.58202 206.161 9.05816 206.366 8.58193C206.572 8.1057 206.857 7.69174 207.224 7.34006C207.59 6.98105 208.019 6.7063 208.51 6.51581C209.008 6.31799 209.55 6.21908 210.136 6.21908C210.73 6.21908 211.275 6.32165 211.774 6.5268C212.279 6.72462 212.708 7.02135 213.059 7.41699L212.345 8.10936C212.052 7.80164 211.722 7.57451 211.356 7.42798C210.99 7.27412 210.598 7.19719 210.18 7.19719C209.748 7.19719 209.345 7.27046 208.971 7.41699C208.605 7.56352 208.286 7.76867 208.015 8.03243C207.744 8.29619 207.531 8.61124 207.378 8.97757C207.231 9.33658 207.158 9.72855 207.158 10.1535C207.158 10.5784 207.231 10.9741 207.378 11.3404C207.531 11.6994 207.744 12.0108 208.015 12.2746C208.286 12.5383 208.605 12.7435 208.971 12.89C209.345 13.0365 209.748 13.1098 210.18 13.1098C210.598 13.1098 210.99 13.0365 211.356 12.89C211.722 12.7361 212.052 12.5017 212.345 12.1866L213.059 12.879C212.708 13.2747 212.279 13.5751 211.774 13.7802C211.275 13.9853 210.726 14.0879 210.125 14.0879ZM216.069 14V7.26313H213.431V6.307H219.795V7.26313H217.157V14H216.069Z" fill="white"/>
</g>
</svg>
